<?xml version="1.0" standalone="no"?>
<svg xmlns="http://www.w3.org/2000/svg" version="1.1" xmlns:xlink="http://www.w3.org/1999/xlink" width="512" height="512" x="0" y="0" viewBox="0 0 48 48" style="enable-background:new 0 0 512 512" xml:space="preserve" class=""><g><path d="M41.74 27.54 39.76 24l1.98-3.54c.54-.97.19-2.19-.77-2.73l-3.22-1.8v-3.68c0-1.1-.9-2-2-2h-3.69l-1.79-3.22c-.27-.47-.69-.8-1.21-.95-.51-.14-1.05-.08-1.52.18L24 8.24l-3.54-1.98c-.47-.26-1.01-.32-1.52-.18-.52.15-.94.48-1.21.95l-1.79 3.22h-3.69c-1.1 0-2 .9-2 2v3.68l-3.22 1.8c-.96.54-1.31 1.76-.77 2.73L8.24 24l-1.98 3.54c-.26.47-.32 1.01-.18 1.52.15.52.48.94.95 1.21l3.22 1.8v3.68c0 1.1.9 2 2 2h3.69l1.79 3.22c.27.47.69.8 1.21.95.18.05.36.07.54.07.34 0 .67-.08.98-.25L24 39.76l3.54 1.98c.47.26 1.01.32 1.52.18.52-.15.94-.48 1.21-.95l1.79-3.22h3.69c1.1 0 2-.9 2-2v-3.68l3.22-1.8c.47-.27.8-.69.95-1.21.14-.51.08-1.05-.18-1.52zm-9.03-7.83-10 10c-.2.19-.45.29-.71.29s-.51-.1-.71-.29l-5-5c-.39-.39-.39-1.03 0-1.42s1.03-.39 1.42 0l4.29 4.3 9.29-9.3c.39-.39 1.03-.39 1.42 0s.39 1.03 0 1.42z" fill="#ffffff" opacity="1" data-original="#000000" class=""/></g></svg>